<svg xmlns="http://www.w3.org/2000/svg" width="1200" height="350" viewBox="0 0 1200 350" xmlns:c2pa="http://c2pa.org/manifest"><metadata><c2pa:manifest>AAAWgmp1bWIAAAAeanVtZGMycGEAEQAQgAAAqgA4m3EDYzJwYQAAABZcanVtYgAAAEdqdW1kYzJtYQARABCAAACqADibcQN1cm46YzJwYTplOTVhOTcxNi01NmViLTQ0Y2UtODA3Yi1iODY1ZjJiYTAxNWUAAAADl2p1bWIAAAApanVtZGMyYXMAEQAQgAAAqgA4m3EDYzJwYS5hc3NlcnRpb25zAAAAALxqdW1iAAAARGp1bWRjYm9yABEAEIAAAKoAOJtxE2MycGEuaW5ncmVkaWVudC52MwAAAAAYYzJzaI6LSHpXlXu3BxvZ1e8ER5cAAABwY2JvcqNpZGM6Zm9ybWF0bWltYWdlL3N2Zyt4bWxqaW5zdGFuY2VJRHgseG1wOmlpZDoyNDc1NWQ4Yy0zYmIxLTRlMjktYjI1MC04YjcwZDZiYTEyZjNscmVsYXRpb25zaGlwaHBhcmVudE9mAAAB4mp1bWIAAABBanVtZGNib3IAEQAQgAAAqgA4m3ETYzJwYS5hY3Rpb25zLnYyAAAAABhjMnNo+HCc3gVs8Yd1JToc1ptICAAAAZljYm9yomdhY3Rpb25zgqJmYWN0aW9ua2MycGEub3BlbmVkanBhcmFtZXRlcnOha2luZ3JlZGllbnRzgaJjdXJseC1zZWxmI2p1bWJmPWMycGEuYXNzZXJ0aW9ucy9jMnBhLmluZ3JlZGllbnQudjNkaGFzaFggbjR7obp2ByMnB7B+zguNotAuSLXD3c8LwJnSSMpR48GkZmFjdGlvbngdY29tLmFudGhyb3BpYy5jbGF1ZGUucHJvdmlkZWRqcGFyYW1ldGVyc6F4H2NvbS5hbnRocm9waWMub3JpZ2luLWNvbmZpZGVuY2VndW5rbm93bmtkZXNjcmlwdGlvbnhmQ2xhdWRlIHByb3ZpZGVkIHRoaXMgZmlsZSBhdCB0aGUgcmVxdWVzdCBvZiBhIHVzZXIgYW5kIG1heSBoYXZlIGNyZWF0ZWQgb3IgbW9kaWZpZWQgdGhlIGZpbGUgY29udGVudHMubXNvZnR3YXJlQWdlbnShZG5hbWVmQ2xhdWRlcmFsbEFjdGlvbnNJbmNsdWRlZPUAAADIanVtYgAAAEBqdW1kY2JvcgARABCAAACqADibcRNjMnBhLmhhc2guZGF0YQAAAAAYYzJzaCGLmBgF3mGeOqps0RWsPYAAAACAY2JvcqVjYWxnZnNoYTI1NmNwYWRNAAAAAAAAAAAAAAAAAGRoYXNoWCAjwdLU6ncXhwNTeRDYccx9HmogQbUFh+oGKsI2PXySGmRuYW1lbmp1bWJmIG1hbmlmZXN0amV4Y2x1c2lvbnOBomVzdGFydBiYZmxlbmd0aBkeBAAAAj5qdW1iAAAAJ2p1bWRjMmNsABEAEIAAAKoAOJtxA2MycGEuY2xhaW0udjIAAAACD2Nib3KlY2FsZ2ZzaGEyNTZpc2lnbmF0dXJleE1zZWxmI2p1bWJmPS9jMnBhL3VybjpjMnBhOmU5NWE5NzE2LTU2ZWItNDRjZS04MDdiLWI4NjVmMmJhMDE1ZS9jMnBhLnNpZ25hdHVyZWppbnN0YW5jZUlEeCx4bXA6aWlkOjM0MzBlYjBkLTFiOTAtNDAwNS1iOGQyLTRlNTdkODk0MmJkZHJjcmVhdGVkX2Fzc2VydGlvbnODomN1cmx4LXNlbGYjanVtYmY9YzJwYS5hc3NlcnRpb25zL2MycGEuaW5ncmVkaWVudC52M2RoYXNoWCBuNHuhunYHIycHsH7OC42i0C5ItcPdzwvAmdJIylHjwaJjdXJseCpzZWxmI2p1bWJmPWMycGEuYXNzZXJ0aW9ucy9jMnBhLmFjdGlvbnMudjJkaGFzaFggKZn/vZs6/ekW26xwxGqy1psXUSyfYL8RMcRgIST01uOiY3VybHgpc2VsZiNqdW1iZj1jMnBhLmFzc2VydGlvbnMvYzJwYS5oYXNoLmRhdGFkaGFzaFggGL0AR2yYy1+jySTLONLLjZTCG/CqavZAONRY++Vi4jJ0Y2xhaW1fZ2VuZXJhdG9yX2luZm+jZG5hbWVvQW50aHJvcGljIEZpbGVzZ3ZlcnNpb25lMS4wLjBrc3BlY1ZlcnNpb25lMi40LjAAABA4anVtYgAAAChqdW1kYzJjcwARABCAAACqADibcQNjMnBhLnNpZ25hdHVyZQAAABAIY2JvctKEWQISogEmGCFZAgowggIGMIIBjaADAgECAhRA5aAK7sI50L64g/oGQgU9Z1UTADAKBggqhkjOPQQDAzBJMRcwFQYDVQQKEw5BbnRocm9waWMsIFBCQzEuMCwGA1UEAxMlQW50aHJvcGljIENvbnRlbnQgQ3JlZGVudGlhbHMgUm9vdCBDQTAeFw0yNjA4MDcxODQzNTZaFw0yODA4MDYxOTQzNTZaMEQxFzAVBgNVBAoTDkFudGhyb3BpYywgUEJDMSkwJwYDVQQDEyBBbnRocm9waWMgQ2xhdWRlIENvbnRlbnQgU2lnbmluZzBZMBMGByqGSM49AgEGCCqGSM49AwEHA0IABJh6CmvLUBgFFNU0vUKlOVtE6djd17L5SuwX0LemFisBM3dkd/3cyjxFA3Qo5S46fX0/ihY0VZ7mfb9KF703t5OjWDBWMA4GA1UdDwEB/wQEAwIHgDAVBgNVHSUEDjAMBgorBgEEAYPoXgIBMAwGA1UdEwEB/wQCMAAwHwYDVR0jBBgwFoAUzlHiBIFOZFsj+OPEz5o+nMHXXMIwCgYIKoZIzj0EAwMDZwAwZAIwMXMdFJ4BetLLVY7ORuE9noqbbAZOZn/aArXyTwFAZfKrPzxF2vPoJNf1+UCdg1XGAjBwX1zd9WGqYkqmL5SFqw1QySjr1zJfpJM9+1rdDwSPLMOPOjKuiXjoU/pUUeG9RwmhY3BhZFkNngAAAAAAAAAAAAAAAAAAAAAAAAAAAAAAAAAAAAAAAAAAAAAAAAAAAAAAAAAAAAAAAAAAAAAAAAAAAAAAAAAAAAAAAAAAAAAAAAAAAAAAAAAAAAAAAAAAAAAAAAAAAAAAAAAAAAAAAAAAAAAAAAAAAAAAAAAAAAAAAAAAAAAAAAAAAAAAAAAAAAAAAAAAAAAAAAAAAAAAAAAAAAAAAAAAAAAAAAAAAAAAAAAAAAAAAAAAAAAAAAAAAAAAAAAAAAAAAAAAAAAAAAAAAAAAAAAAAAAAAAAAAAAAAAAAAAAAAAAAAAAAAAAAAAAAAAAAAAAAAAAAAAAAAAAAAAAAAAAAAAAAAAAAAAAAAAAAAAAAAAAAAAAAAAAAAAAAAAAAAAAAAAAAAAAAAAAAAAAAAAAAAAAAAAAAAAAAAAAAAAAAAAAAAAAAAAAAAAAAAAAAAAAAAAAAAAAAAAAAAAAAAAAAAAAAAAAAAAAAAAAAAAAAAAAAAAAAAAAAAAAAAAAAAAAAAAAAAAAAAAAAAAAAAAAAAAAAAAAAAAAAAAAAAAAAAAAAAAAAAAAAAAAAAAAAAAAAAAAAAAAAAAAAAAAAAAAAAAAAAAAAAAAAAAAAAAAAAAAAAAAAAAAAAAAAAAAAAAAAAAAAAAAAAAAAAAAAAAAAAAAAAAAAAAAAAAAAAAAAAAAAAAAAAAAAAAAAAAAAAAAAAAAAAAAAAAAAAAAAAAAAAAAAAAAAAAAAAAAAAAAAAAAAAAAAAAAAAAAAAAAAAAAAAAAAAAAAAAAAAAAAAAAAAAAAAAAAAAAAAAAAAAAAAAAAAAAAAAAAAAAAAAAAAAAAAAAAAAAAAAAAAAAAAAAAAAAAAAAAAAAAAAAAAAAAAAAAAAAAAAAAAAAAAAAAAAAAAAAAAAAAAAAAAAAAAAAAAAAAAAAAAAAAAAAAAAAAAAAAAAAAAAAAAAAAAAAAAAAAAAAAAAAAAAAAAAAAAAAAAAAAAAAAAAAAAAAAAAAAAAAAAAAAAAAAAAAAAAAAAAAAAAAAAAAAAAAAAAAAAAAAAAAAAAAAAAAAAAAAAAAAAAAAAAAAAAAAAAAAAAAAAAAAAAAAAAAAAAAAAAAAAAAAAAAAAAAAAAAAAAAAAAAAAAAAAAAAAAAAAAAAAAAAAAAAAAAAAAAAAAAAAAAAAAAAAAAAAAAAAAAAAAAAAAAAAAAAAAAAAAAAAAAAAAAAAAAAAAAAAAAAAAAAAAAAAAAAAAAAAAAAAAAAAAAAAAAAAAAAAAAAAAAAAAAAAAAAAAAAAAAAAAAAAAAAAAAAAAAAAAAAAAAAAAAAAAAAAAAAAAAAAAAAAAAAAAAAAAAAAAAAAAAAAAAAAAAAAAAAAAAAAAAAAAAAAAAAAAAAAAAAAAAAAAAAAAAAAAAAAAAAAAAAAAAAAAAAAAAAAAAAAAAAAAAAAAAAAAAAAAAAAAAAAAAAAAAAAAAAAAAAAAAAAAAAAAAAAAAAAAAAAAAAAAAAAAAAAAAAAAAAAAAAAAAAAAAAAAAAAAAAAAAAAAAAAAAAAAAAAAAAAAAAAAAAAAAAAAAAAAAAAAAAAAAAAAAAAAAAAAAAAAAAAAAAAAAAAAAAAAAAAAAAAAAAAAAAAAAAAAAAAAAAAAAAAAAAAAAAAAAAAAAAAAAAAAAAAAAAAAAAAAAAAAAAAAAAAAAAAAAAAAAAAAAAAAAAAAAAAAAAAAAAAAAAAAAAAAAAAAAAAAAAAAAAAAAAAAAAAAAAAAAAAAAAAAAAAAAAAAAAAAAAAAAAAAAAAAAAAAAAAAAAAAAAAAAAAAAAAAAAAAAAAAAAAAAAAAAAAAAAAAAAAAAAAAAAAAAAAAAAAAAAAAAAAAAAAAAAAAAAAAAAAAAAAAAAAAAAAAAAAAAAAAAAAAAAAAAAAAAAAAAAAAAAAAAAAAAAAAAAAAAAAAAAAAAAAAAAAAAAAAAAAAAAAAAAAAAAAAAAAAAAAAAAAAAAAAAAAAAAAAAAAAAAAAAAAAAAAAAAAAAAAAAAAAAAAAAAAAAAAAAAAAAAAAAAAAAAAAAAAAAAAAAAAAAAAAAAAAAAAAAAAAAAAAAAAAAAAAAAAAAAAAAAAAAAAAAAAAAAAAAAAAAAAAAAAAAAAAAAAAAAAAAAAAAAAAAAAAAAAAAAAAAAAAAAAAAAAAAAAAAAAAAAAAAAAAAAAAAAAAAAAAAAAAAAAAAAAAAAAAAAAAAAAAAAAAAAAAAAAAAAAAAAAAAAAAAAAAAAAAAAAAAAAAAAAAAAAAAAAAAAAAAAAAAAAAAAAAAAAAAAAAAAAAAAAAAAAAAAAAAAAAAAAAAAAAAAAAAAAAAAAAAAAAAAAAAAAAAAAAAAAAAAAAAAAAAAAAAAAAAAAAAAAAAAAAAAAAAAAAAAAAAAAAAAAAAAAAAAAAAAAAAAAAAAAAAAAAAAAAAAAAAAAAAAAAAAAAAAAAAAAAAAAAAAAAAAAAAAAAAAAAAAAAAAAAAAAAAAAAAAAAAAAAAAAAAAAAAAAAAAAAAAAAAAAAAAAAAAAAAAAAAAAAAAAAAAAAAAAAAAAAAAAAAAAAAAAAAAAAAAAAAAAAAAAAAAAAAAAAAAAAAAAAAAAAAAAAAAAAAAAAAAAAAAAAAAAAAAAAAAAAAAAAAAAAAAAAAAAAAAAAAAAAAAAAAAAAAAAAAAAAAAAAAAAAAAAAAAAAAAAAAAAAAAAAAAAAAAAAAAAAAAAAAAAAAAAAAAAAAAAAAAAAAAAAAAAAAAAAAAAAAAAAAAAAAAAAAAAAAAAAAAAAAAAAAAAAAAAAAAAAAAAAAAAAAAAAAAAAAAAAAAAAAAAAAAAAAAAAAAAAAAAAAAAAAAAAAAAAAAAAAAAAAAAAAAAAAAAAAAAAAAAAAAAAAAAAAAAAAAAAAAAAAAAAAAAAAAAAAAAAAAAAAAAAAAAAAAAAAAAAAAAAAAAAAAAAAAAAAAAAAAAAAAAAAAAAAAAAAAAAAAAAAAAAAAAAAAAAAAAAAAAAAAAAAAAAAAAAAAAAAAAAAAAAAAAAAAAAAAAAAAAAAAAAAAAAAAAAAAAAAAAAAAAAAAAAAAAAAAAAAAAAAAAAAAAAAAAAAAAAAAAAAAAAAAAAAAAAAAAAAAAAAAAAAAAAAAAAAAAAAAAAAAAAAAAAAAAAAAAAAAAAAAAAAAAAAAAAAAAAAAAAAAAAAAAAAAAAAAAAAAAAAAAAAAAAAAAAAAAAAAAAAAAAAAAAAAAAAAAAAAAAAAAAAAAAAAAAAAAAAAAAAAAAAAAAAAAAAAAAAAAAAAAAAAAAAAAAAAAAAAAAAAAAAAAAAAAAAAAAAAAAAAAAAAAAAAAAAAAAAAAAAAAAAAAAAAAAAAAAAAAAAAAAAAAAAAAAAAAAAAAAAAAAAAAAAAAAAAAAAAAAAAAAAAAAAAAAAAAAAAAAAAAAAAAAAAAAAAAAAAAAAAAAAAAAAAAAAAAAAAAAAAAAAAAAAAAAAAAAAAAAAAAAAAAAAAAAAAAAAAAAAAAAAAAAAAAAAAAAAAAAAAAAAAAAAAAAAAAAAAAAAAAAAAAAAAAAAAAAAAAAAAAAAAAAAAAAAAAAAAAAAAAAAAAAAAAAAAAAAAAAAAAAAAAAAAAAAAAAAAAAAAAAAAAAAAAAAAAAAAAAAAAAAAAAAAAAAAAAAAAAAAAAAAAAAAAAAAAAAAAAAAAAAAAAAAAAAAAAAAAAAAAAAAAAAAAAAAAAAAAAAAAAAAAAAAAAAAAAAAAAAAAAAAAAAAAAAAAAAAAAAAAAAAAAAAAAAAAAAAAAAAAAAAAAAAAAAAAAAAAAAAAAAAAAAAAAAAAAAAAAAAAAAAAAAAAAAAAAAAAAAAAAAAAAAAAAAAAAAAAAAAAAAAAAAAAAAAAAAAAAAAAAAAAAAAAAAAAAAAAAAAAAAAAAAAAAAAAAAAAAAAAAAAAAAAAAAAAAAAAAAAAAAAAAAAAAAAAAAAAAAAAAAAAAAAAAAAAAAAAAAAAAAAAAAAAAAAAAAAAAAAAAAAAAAAAAAAAAAAAAAAAAAAAAAAAAAAAAAAAAAAAAAAAAAAAAAAAAAAAAAAAAAAAAAAAAAAAAAAAAAAAAAAAAAAAAAAAAAAAAAAAAAAAAAAAAAAAAAAAAAAAAAAAAAAAAAAAAAAAAAAAAAAAAAAAAAAAAAAAAAAAAAAAAAAAAAAAAAAAAAAAAAAAAAAAAAAAAAAAAAAAAAAAAAAAAAAAAAAAAAAAAAAAAAAAAAAAAAAAAAAAAAAAAAAAAAAAAAAAAAAAAAAAAAAAAAAAAAAAAAAAAAAAAAAAAAAAAAAAAAAAAAAAAAAAAAAAAAAAAAAAAAAAAAAAAAAAAAAAAAAAAAAAAAAAAAAAAAAAAAAAAAAAAAAAAAAAAAAAAAAAAAAAAAAAAAAAAAAAAAAAAAAAAAAAAAAAAAAAAAAAAAAAAAAAAAAAAAAAAAAAAAAAAAAAAAAAAAAAAAAAAAAAAAAAAAAAAAAAAAAAAAAAAAAAAAAAAAAAAAAAAAAAAAAAAAAAAAAAAAAAAAAAAAAAAAAAAAAAAAAAAAAAAAAAAAAAAAAAAAAAAAAAAAAAAAAAAAAAAAAAAAAAAAAAAAAAAAAAAAAAAAAAAAAAAAAAAAAAAAAAAAAAAAAAAAAAAAAAAAAAAAAAAAAAAAAAPZYQOlD/5nXKGNeFpsWDBDiKcz1nVe5VCMSkBnMgN7gw7Cm5+/AYWddx35zkX85TGxihfdGnSxW1xVtDjoBgtwrGcg=</c2pa:manifest></metadata><rect width="1200" height="350" rx="16" fill="#12171a"/><rect x="6" y="6" width="1188" height="338" rx="12" fill="none" stroke="#2b3a2e" stroke-width="2"/><text x="60" y="110" font-size="52" fill="#7ED957" text-anchor="start" font-family="'Courier New',Consolas,monospace" font-weight="bold">Comparte.</text><text x="60" y="170" font-size="52" fill="#d7ecd0" text-anchor="start" font-family="'Courier New',Consolas,monospace" font-weight="bold">Rétate.</text><text x="60" y="230" font-size="52" fill="#7ED957" text-anchor="start" font-family="'Courier New',Consolas,monospace" font-weight="bold">Repite.</text><text x="60" y="285" font-size="20" fill="#8fa392" text-anchor="start" font-family="'Courier New',Consolas,monospace" font-weight="bold">Cuatro pantallas, cuatro jugadores.</text><text x="60" y="312" font-size="20" fill="#8fa392" text-anchor="start" font-family="'Courier New',Consolas,monospace" font-weight="bold">Un solo cubo para jugar en grupo.</text><line x1="600.0" y1="160.0" x2="1150.0" y2="160.0" stroke="#2b3a2e" stroke-width="3"/><rect x="580.0" y="95.0" width="130.0" height="130.0" fill="#26402a" rx="6" stroke="#7ED957" stroke-width="2"/><g transform="translate(588,103)"><rect x="0.0" y="0.0" width="114.0" height="114.0" fill="#05060f" rx="0" /><rect x="13.7" y="11.4" width="10.3" height="9.1" fill="#ff4d4d" rx="0" /><rect x="16.0" y="20.5" width="5.7" height="3.4" fill="#ff4d4d" rx="0" /><rect x="29.6" y="11.4" width="10.3" height="9.1" fill="#ff4d4d" rx="0" /><rect x="31.9" y="20.5" width="5.7" height="3.4" fill="#ff4d4d" rx="0" /><rect x="45.6" y="11.4" width="10.3" height="9.1" fill="#ff4d4d" rx="0" /><rect x="47.9" y="20.5" width="5.7" height="3.4" fill="#ff4d4d" rx="0" /><rect x="61.6" y="11.4" width="10.3" height="9.1" fill="#ff4d4d" rx="0" /><rect x="63.8" y="20.5" width="5.7" height="3.4" fill="#ff4d4d" rx="0" /><rect x="77.5" y="11.4" width="10.3" height="9.1" fill="#ff4d4d" rx="0" /><rect x="79.8" y="20.5" width="5.7" height="3.4" fill="#ff4d4d" rx="0" /><rect x="93.5" y="11.4" width="10.3" height="9.1" fill="#ff4d4d" rx="0" /><rect x="95.8" y="20.5" width="5.7" height="3.4" fill="#ff4d4d" rx="0" /><rect x="13.7" y="27.4" width="10.3" height="9.1" fill="#4da6ff" rx="0" /><rect x="16.0" y="36.5" width="5.7" height="3.4" fill="#4da6ff" rx="0" /><rect x="29.6" y="27.4" width="10.3" height="9.1" fill="#4da6ff" rx="0" /><rect x="31.9" y="36.5" width="5.7" height="3.4" fill="#4da6ff" rx="0" /><rect x="45.6" y="27.4" width="10.3" height="9.1" fill="#4da6ff" rx="0" /><rect x="47.9" y="36.5" width="5.7" height="3.4" fill="#4da6ff" rx="0" /><rect x="61.6" y="27.4" width="10.3" height="9.1" fill="#4da6ff" rx="0" /><rect x="63.8" y="36.5" width="5.7" height="3.4" fill="#4da6ff" rx="0" /><rect x="77.5" y="27.4" width="10.3" height="9.1" fill="#4da6ff" rx="0" /><rect x="79.8" y="36.5" width="5.7" height="3.4" fill="#4da6ff" rx="0" /><rect x="93.5" y="27.4" width="10.3" height="9.1" fill="#4da6ff" rx="0" /><rect x="95.8" y="36.5" width="5.7" height="3.4" fill="#4da6ff" rx="0" /><rect x="13.7" y="43.3" width="10.3" height="9.1" fill="#ffd24d" rx="0" /><rect x="16.0" y="52.4" width="5.7" height="3.4" fill="#ffd24d" rx="0" /><rect x="29.6" y="43.3" width="10.3" height="9.1" fill="#ffd24d" rx="0" /><rect x="31.9" y="52.4" width="5.7" height="3.4" fill="#ffd24d" rx="0" /><rect x="45.6" y="43.3" width="10.3" height="9.1" fill="#ffd24d" rx="0" /><rect x="47.9" y="52.4" width="5.7" height="3.4" fill="#ffd24d" rx="0" /><rect x="61.6" y="43.3" width="10.3" height="9.1" fill="#ffd24d" rx="0" /><rect x="63.8" y="52.4" width="5.7" height="3.4" fill="#ffd24d" rx="0" /><rect x="77.5" y="43.3" width="10.3" height="9.1" fill="#ffd24d" rx="0" /><rect x="79.8" y="52.4" width="5.7" height="3.4" fill="#ffd24d" rx="0" /><rect x="93.5" y="43.3" width="10.3" height="9.1" fill="#ffd24d" rx="0" /><rect x="95.8" y="52.4" width="5.7" height="3.4" fill="#ffd24d" rx="0" /><polygon points="57.0,86.64 63.84,104.88 50.16,104.88" fill="#e8e8e8"/><rect x="55.5" y="57.0" width="3.0" height="20.5" fill="#7ED957" rx="0" /></g><text x="645" y="255" font-size="22" fill="#7ED957" text-anchor="middle" font-family="'Courier New',Consolas,monospace" font-weight="bold">J1</text><rect x="730.0" y="95.0" width="130.0" height="130.0" fill="#26402a" rx="6" stroke="#7ED957" stroke-width="2"/><g transform="translate(738,103)"><rect x="0.0" y="0.0" width="114.0" height="114.0" fill="#2c7a2c" rx="0" /><polygon points="43.32,0 70.67999999999999,0 102.60000000000001,114 11.4,114" fill="#555"/><rect x="55.9" y="5.7" width="2.3" height="11.4" fill="#fff" rx="0" /><rect x="55.9" y="28.5" width="2.3" height="11.4" fill="#fff" rx="0" /><rect x="55.9" y="51.3" width="2.3" height="11.4" fill="#fff" rx="0" /><rect x="55.9" y="74.1" width="2.3" height="11.4" fill="#fff" rx="0" /><rect x="55.9" y="96.9" width="2.3" height="11.4" fill="#fff" rx="0" /><rect x="62.7" y="79.8" width="11.4" height="19.4" fill="#e53935" rx="0" /><rect x="45.6" y="28.5" width="9.1" height="14.8" fill="#4da6ff" rx="0" /><rect x="57.0" y="51.3" width="9.1" height="14.8" fill="#7ED957" rx="0" /></g><text x="795" y="255" font-size="22" fill="#7ED957" text-anchor="middle" font-family="'Courier New',Consolas,monospace" font-weight="bold">J2</text><rect x="880.0" y="95.0" width="130.0" height="130.0" fill="#26402a" rx="6" stroke="#7ED957" stroke-width="2"/><g transform="translate(888,103)"><rect x="0.0" y="0.0" width="114.0" height="114.0" fill="#05060f" rx="0" /><rect x="6.8" y="34.2" width="4.6" height="34.2" fill="#fff" rx="0" /><rect x="102.6" y="51.3" width="4.6" height="34.2" fill="#fff" rx="0" /><rect x="62.7" y="45.6" width="6.8" height="6.8" fill="#7ED957" rx="0" /><rect x="55.9" y="5.7" width="2.3" height="8.0" fill="#555" rx="0" /><rect x="55.9" y="19.4" width="2.3" height="8.0" fill="#555" rx="0" /><rect x="55.9" y="33.1" width="2.3" height="8.0" fill="#555" rx="0" /><rect x="55.9" y="46.7" width="2.3" height="8.0" fill="#555" rx="0" /><rect x="55.9" y="60.4" width="2.3" height="8.0" fill="#555" rx="0" /><rect x="55.9" y="74.1" width="2.3" height="8.0" fill="#555" rx="0" /><rect x="55.9" y="87.8" width="2.3" height="8.0" fill="#555" rx="0" /><rect x="55.9" y="101.5" width="2.3" height="8.0" fill="#555" rx="0" /></g><text x="945" y="255" font-size="22" fill="#7ED957" text-anchor="middle" font-family="'Courier New',Consolas,monospace" font-weight="bold">J3</text><rect x="1030.0" y="95.0" width="130.0" height="130.0" fill="#26402a" rx="6" stroke="#7ED957" stroke-width="2"/><g transform="translate(1038,103)"><rect x="0.0" y="0.0" width="114.0" height="114.0" fill="#0f2a12" rx="0" /><polyline points="22.8,85.5 22.8,34.199999999999996 79.8,34.199999999999996 79.8,68.39999999999999 57.0,68.39999999999999" fill="none" stroke="#7ED957" stroke-width="10.3"/><rect x="51.3" y="62.7" width="8.0" height="11.4" fill="#c8ffb0" rx="0" /><rect x="96.9" y="85.5" width="6.8" height="9.1" fill="#ff4d4d" rx="0" /></g><text x="1095" y="255" font-size="22" fill="#7ED957" text-anchor="middle" font-family="'Courier New',Consolas,monospace" font-weight="bold">J4</text></svg>