<svg xmlns="http://www.w3.org/2000/svg" width="1200" height="410" viewBox="0 0 1200 410" xmlns:c2pa="http://c2pa.org/manifest"><metadata><c2pa:manifest>AAAWgmp1bWIAAAAeanVtZGMycGEAEQAQgAAAqgA4m3EDYzJwYQAAABZcanVtYgAAAEdqdW1kYzJtYQARABCAAACqADibcQN1cm46YzJwYTphNWExNDQwOC00MmY3LTRlNmEtODZjZS1kMjFjN2JhNzFiYTMAAAADl2p1bWIAAAApanVtZGMyYXMAEQAQgAAAqgA4m3EDYzJwYS5hc3NlcnRpb25zAAAAALxqdW1iAAAARGp1bWRjYm9yABEAEIAAAKoAOJtxE2MycGEuaW5ncmVkaWVudC52MwAAAAAYYzJzaMBQ4L0E81FsUNwtyPsSspIAAABwY2JvcqNpZGM6Zm9ybWF0bWltYWdlL3N2Zyt4bWxqaW5zdGFuY2VJRHgseG1wOmlpZDpiMDViNzI0Yy0wMjliLTRlOWUtYjgyNi03MjQzYzUzYTJlZjdscmVsYXRpb25zaGlwaHBhcmVudE9mAAAB4mp1bWIAAABBanVtZGNib3IAEQAQgAAAqgA4m3ETYzJwYS5hY3Rpb25zLnYyAAAAABhjMnNonov7zdYkn+6Yqi/uzl1gzwAAAZljYm9yomdhY3Rpb25zgqJmYWN0aW9ua2MycGEub3BlbmVkanBhcmFtZXRlcnOha2luZ3JlZGllbnRzgaJjdXJseC1zZWxmI2p1bWJmPWMycGEuYXNzZXJ0aW9ucy9jMnBhLmluZ3JlZGllbnQudjNkaGFzaFggWFHmSu7IHhnav+B1MrHCzh/4GxzLflCoKxzXR6blqVKkZmFjdGlvbngdY29tLmFudGhyb3BpYy5jbGF1ZGUucHJvdmlkZWRqcGFyYW1ldGVyc6F4H2NvbS5hbnRocm9waWMub3JpZ2luLWNvbmZpZGVuY2VndW5rbm93bmtkZXNjcmlwdGlvbnhmQ2xhdWRlIHByb3ZpZGVkIHRoaXMgZmlsZSBhdCB0aGUgcmVxdWVzdCBvZiBhIHVzZXIgYW5kIG1heSBoYXZlIGNyZWF0ZWQgb3IgbW9kaWZpZWQgdGhlIGZpbGUgY29udGVudHMubXNvZnR3YXJlQWdlbnShZG5hbWVmQ2xhdWRlcmFsbEFjdGlvbnNJbmNsdWRlZPUAAADIanVtYgAAAEBqdW1kY2JvcgARABCAAACqADibcRNjMnBhLmhhc2guZGF0YQAAAAAYYzJzaFD5mx+HPAkXeOLhoOFcy1kAAACAY2JvcqVjYWxnZnNoYTI1NmNwYWRNAAAAAAAAAAAAAAAAAGRoYXNoWCDFSVqVS+SHxSvULxggBn/iMB3moJJaB2TSn5OiUzWezWRuYW1lbmp1bWJmIG1hbmlmZXN0amV4Y2x1c2lvbnOBomVzdGFydBiYZmxlbmd0aBkeBAAAAj5qdW1iAAAAJ2p1bWRjMmNsABEAEIAAAKoAOJtxA2MycGEuY2xhaW0udjIAAAACD2Nib3KlY2FsZ2ZzaGEyNTZpc2lnbmF0dXJleE1zZWxmI2p1bWJmPS9jMnBhL3VybjpjMnBhOmE1YTE0NDA4LTQyZjctNGU2YS04NmNlLWQyMWM3YmE3MWJhMy9jMnBhLnNpZ25hdHVyZWppbnN0YW5jZUlEeCx4bXA6aWlkOjBlYTllNzE0LTQwYzctNGQ1MS1hZjc5LTZhOWVjYzI2ZjIxYXJjcmVhdGVkX2Fzc2VydGlvbnODomN1cmx4LXNlbGYjanVtYmY9YzJwYS5hc3NlcnRpb25zL2MycGEuaW5ncmVkaWVudC52M2RoYXNoWCBYUeZK7sgeGdq/4HUyscLOH/gbHMt+UKgrHNdHpuWpUqJjdXJseCpzZWxmI2p1bWJmPWMycGEuYXNzZXJ0aW9ucy9jMnBhLmFjdGlvbnMudjJkaGFzaFggVLEWrB4gZVcnDq1QgGYcQYpC36SBcRoT10kQL4V2K8+iY3VybHgpc2VsZiNqdW1iZj1jMnBhLmFzc2VydGlvbnMvYzJwYS5oYXNoLmRhdGFkaGFzaFggO5c7FV+oXjeG1uE1Z1nk+7OKoa6wJDiGk520exNgL/B0Y2xhaW1fZ2VuZXJhdG9yX2luZm+jZG5hbWVvQW50aHJvcGljIEZpbGVzZ3ZlcnNpb25lMS4wLjBrc3BlY1ZlcnNpb25lMi40LjAAABA4anVtYgAAAChqdW1kYzJjcwARABCAAACqADibcQNjMnBhLnNpZ25hdHVyZQAAABAIY2JvctKEWQISogEmGCFZAgowggIGMIIBjaADAgECAhRA5aAK7sI50L64g/oGQgU9Z1UTADAKBggqhkjOPQQDAzBJMRcwFQYDVQQKEw5BbnRocm9waWMsIFBCQzEuMCwGA1UEAxMlQW50aHJvcGljIENvbnRlbnQgQ3JlZGVudGlhbHMgUm9vdCBDQTAeFw0yNjA4MDcxODQzNTZaFw0yODA4MDYxOTQzNTZaMEQxFzAVBgNVBAoTDkFudGhyb3BpYywgUEJDMSkwJwYDVQQDEyBBbnRocm9waWMgQ2xhdWRlIENvbnRlbnQgU2lnbmluZzBZMBMGByqGSM49AgEGCCqGSM49AwEHA0IABJh6CmvLUBgFFNU0vUKlOVtE6djd17L5SuwX0LemFisBM3dkd/3cyjxFA3Qo5S46fX0/ihY0VZ7mfb9KF703t5OjWDBWMA4GA1UdDwEB/wQEAwIHgDAVBgNVHSUEDjAMBgorBgEEAYPoXgIBMAwGA1UdEwEB/wQCMAAwHwYDVR0jBBgwFoAUzlHiBIFOZFsj+OPEz5o+nMHXXMIwCgYIKoZIzj0EAwMDZwAwZAIwMXMdFJ4BetLLVY7ORuE9noqbbAZOZn/aArXyTwFAZfKrPzxF2vPoJNf1+UCdg1XGAjBwX1zd9WGqYkqmL5SFqw1QySjr1zJfpJM9+1rdDwSPLMOPOjKuiXjoU/pUUeG9RwmhY3BhZFkNngAAAAAAAAAAAAAAAAAAAAAAAAAAAAAAAAAAAAAAAAAAAAAAAAAAAAAAAAAAAAAAAAAAAAAAAAAAAAAAAAAAAAAAAAAAAAAAAAAAAAAAAAAAAAAAAAAAAAAAAAAAAAAAAAAAAAAAAAAAAAAAAAAAAAAAAAAAAAAAAAAAAAAAAAAAAAAAAAAAAAAAAAAAAAAAAAAAAAAAAAAAAAAAAAAAAAAAAAAAAAAAAAAAAAAAAAAAAAAAAAAAAAAAAAAAAAAAAAAAAAAAAAAAAAAAAAAAAAAAAAAAAAAAAAAAAAAAAAAAAAAAAAAAAAAAAAAAAAAAAAAAAAAAAAAAAAAAAAAAAAAAAAAAAAAAAAAAAAAAAAAAAAAAAAAAAAAAAAAAAAAAAAAAAAAAAAAAAAAAAAAAAAAAAAAAAAAAAAAAAAAAAAAAAAAAAAAAAAAAAAAAAAAAAAAAAAAAAAAAAAAAAAAAAAAAAAAAAAAAAAAAAAAAAAAAAAAAAAAAAAAAAAAAAAAAAAAAAAAAAAAAAAAAAAAAAAAAAAAAAAAAAAAAAAAAAAAAAAAAAAAAAAAAAAAAAAAAAAAAAAAAAAAAAAAAAAAAAAAAAAAAAAAAAAAAAAAAAAAAAAAAAAAAAAAAAAAAAAAAAAAAAAAAAAAAAAAAAAAAAAAAAAAAAAAAAAAAAAAAAAAAAAAAAAAAAAAAAAAAAAAAAAAAAAAAAAAAAAAAAAAAAAAAAAAAAAAAAAAAAAAAAAAAAAAAAAAAAAAAAAAAAAAAAAAAAAAAAAAAAAAAAAAAAAAAAAAAAAAAAAAAAAAAAAAAAAAAAAAAAAAAAAAAAAAAAAAAAAAAAAAAAAAAAAAAAAAAAAAAAAAAAAAAAAAAAAAAAAAAAAAAAAAAAAAAAAAAAAAAAAAAAAAAAAAAAAAAAAAAAAAAAAAAAAAAAAAAAAAAAAAAAAAAAAAAAAAAAAAAAAAAAAAAAAAAAAAAAAAAAAAAAAAAAAAAAAAAAAAAAAAAAAAAAAAAAAAAAAAAAAAAAAAAAAAAAAAAAAAAAAAAAAAAAAAAAAAAAAAAAAAAAAAAAAAAAAAAAAAAAAAAAAAAAAAAAAAAAAAAAAAAAAAAAAAAAAAAAAAAAAAAAAAAAAAAAAAAAAAAAAAAAAAAAAAAAAAAAAAAAAAAAAAAAAAAAAAAAAAAAAAAAAAAAAAAAAAAAAAAAAAAAAAAAAAAAAAAAAAAAAAAAAAAAAAAAAAAAAAAAAAAAAAAAAAAAAAAAAAAAAAAAAAAAAAAAAAAAAAAAAAAAAAAAAAAAAAAAAAAAAAAAAAAAAAAAAAAAAAAAAAAAAAAAAAAAAAAAAAAAAAAAAAAAAAAAAAAAAAAAAAAAAAAAAAAAAAAAAAAAAAAAAAAAAAAAAAAAAAAAAAAAAAAAAAAAAAAAAAAAAAAAAAAAAAAAAAAAAAAAAAAAAAAAAAAAAAAAAAAAAAAAAAAAAAAAAAAAAAAAAAAAAAAAAAAAAAAAAAAAAAAAAAAAAAAAAAAAAAAAAAAAAAAAAAAAAAAAAAAAAAAAAAAAAAAAAAAAAAAAAAAAAAAAAAAAAAAAAAAAAAAAAAAAAAAAAAAAAAAAAAAAAAAAAAAAAAAAAAAAAAAAAAAAAAAAAAAAAAAAAAAAAAAAAAAAAAAAAAAAAAAAAAAAAAAAAAAAAAAAAAAAAAAAAAAAAAAAAAAAAAAAAAAAAAAAAAAAAAAAAAAAAAAAAAAAAAAAAAAAAAAAAAAAAAAAAAAAAAAAAAAAAAAAAAAAAAAAAAAAAAAAAAAAAAAAAAAAAAAAAAAAAAAAAAAAAAAAAAAAAAAAAAAAAAAAAAAAAAAAAAAAAAAAAAAAAAAAAAAAAAAAAAAAAAAAAAAAAAAAAAAAAAAAAAAAAAAAAAAAAAAAAAAAAAAAAAAAAAAAAAAAAAAAAAAAAAAAAAAAAAAAAAAAAAAAAAAAAAAAAAAAAAAAAAAAAAAAAAAAAAAAAAAAAAAAAAAAAAAAAAAAAAAAAAAAAAAAAAAAAAAAAAAAAAAAAAAAAAAAAAAAAAAAAAAAAAAAAAAAAAAAAAAAAAAAAAAAAAAAAAAAAAAAAAAAAAAAAAAAAAAAAAAAAAAAAAAAAAAAAAAAAAAAAAAAAAAAAAAAAAAAAAAAAAAAAAAAAAAAAAAAAAAAAAAAAAAAAAAAAAAAAAAAAAAAAAAAAAAAAAAAAAAAAAAAAAAAAAAAAAAAAAAAAAAAAAAAAAAAAAAAAAAAAAAAAAAAAAAAAAAAAAAAAAAAAAAAAAAAAAAAAAAAAAAAAAAAAAAAAAAAAAAAAAAAAAAAAAAAAAAAAAAAAAAAAAAAAAAAAAAAAAAAAAAAAAAAAAAAAAAAAAAAAAAAAAAAAAAAAAAAAAAAAAAAAAAAAAAAAAAAAAAAAAAAAAAAAAAAAAAAAAAAAAAAAAAAAAAAAAAAAAAAAAAAAAAAAAAAAAAAAAAAAAAAAAAAAAAAAAAAAAAAAAAAAAAAAAAAAAAAAAAAAAAAAAAAAAAAAAAAAAAAAAAAAAAAAAAAAAAAAAAAAAAAAAAAAAAAAAAAAAAAAAAAAAAAAAAAAAAAAAAAAAAAAAAAAAAAAAAAAAAAAAAAAAAAAAAAAAAAAAAAAAAAAAAAAAAAAAAAAAAAAAAAAAAAAAAAAAAAAAAAAAAAAAAAAAAAAAAAAAAAAAAAAAAAAAAAAAAAAAAAAAAAAAAAAAAAAAAAAAAAAAAAAAAAAAAAAAAAAAAAAAAAAAAAAAAAAAAAAAAAAAAAAAAAAAAAAAAAAAAAAAAAAAAAAAAAAAAAAAAAAAAAAAAAAAAAAAAAAAAAAAAAAAAAAAAAAAAAAAAAAAAAAAAAAAAAAAAAAAAAAAAAAAAAAAAAAAAAAAAAAAAAAAAAAAAAAAAAAAAAAAAAAAAAAAAAAAAAAAAAAAAAAAAAAAAAAAAAAAAAAAAAAAAAAAAAAAAAAAAAAAAAAAAAAAAAAAAAAAAAAAAAAAAAAAAAAAAAAAAAAAAAAAAAAAAAAAAAAAAAAAAAAAAAAAAAAAAAAAAAAAAAAAAAAAAAAAAAAAAAAAAAAAAAAAAAAAAAAAAAAAAAAAAAAAAAAAAAAAAAAAAAAAAAAAAAAAAAAAAAAAAAAAAAAAAAAAAAAAAAAAAAAAAAAAAAAAAAAAAAAAAAAAAAAAAAAAAAAAAAAAAAAAAAAAAAAAAAAAAAAAAAAAAAAAAAAAAAAAAAAAAAAAAAAAAAAAAAAAAAAAAAAAAAAAAAAAAAAAAAAAAAAAAAAAAAAAAAAAAAAAAAAAAAAAAAAAAAAAAAAAAAAAAAAAAAAAAAAAAAAAAAAAAAAAAAAAAAAAAAAAAAAAAAAAAAAAAAAAAAAAAAAAAAAAAAAAAAAAAAAAAAAAAAAAAAAAAAAAAAAAAAAAAAAAAAAAAAAAAAAAAAAAAAAAAAAAAAAAAAAAAAAAAAAAAAAAAAAAAAAAAAAAAAAAAAAAAAAAAAAAAAAAAAAAAAAAAAAAAAAAAAAAAAAAAAAAAAAAAAAAAAAAAAAAAAAAAAAAAAAAAAAAAAAAAAAAAAAAAAAAAAAAAAAAAAAAAAAAAAAAAAAAAAAAAAAAAAAAAAAAAAAAAAAAAAAAAAAAAAAAAAAAAAAAAAAAAAAAAAAAAAAAAAAAAAAAAAAAAAAAAAAAAAAAAAAAAAAAAAAAAAAAAAAAAAAAAAAAAAAAAAAAAAAAAAAAAAAAAAAAAAAAAAAAAAAAAAAAAAAAAAAAAAAAAAAAAAAAAAAAAAAAAAAAAAAAAAAAAAAAAAAAAAAAAAAAAAAAAAAAAAAAAAAAAAAAAAAAAAAAAAAAAAAAAAAAAAAAAAAAAAAAAAAAAAAAAAAAAAAAAAAAAAAAAAAAAAAAAAAAAAAAAAAAAAAAAAAAAAAAAAAAAAAAAAAAAAAAAAAAAAAAAAAAAAAAAAAAAAAAAAAAAAAAAAAAAAAAAAAAAAAAAAAAAAAAAAAAAAAAAAAAAAAAAAAAAAAAAAAAAAAAAAAAAAAAAAAAAAAAAAAAAAAAAAAAAAAAAAAAAAAAAAAAAAAAAAAAAAAAAAAAAAAAAAAAAAAAAAAAAAAAAAAAAAAAAAAAAAAAAAAAAAAAAAAAAAAAAAAAAAAAAAAAAAAAAAAAAAAAAAAAAAAAAAAAAAAAAAAAAAAAAAAAAAAAAAAAAAAAAAAAAAAAAAAAAAAAAAAAAAAAAAAAAAAAAAAAAAAAAAAAAAAAAAAAAAAAAAAAAAAAAAAAAAAAAAAAAAAAAAAAAAAAAAAAAAAAAAAAAAAAAAAAAAAAAAAAAAAAAAAAAAAAAAAAAAAAAAAAAAAAAAAAAAAAAAAAAAAAAAAAAAAAAAAAAAAAAAAAAAAAAAAAAAAAAAAAAAAAAAAAAAAAAAAAAAAAAAAAAAAAAAAAAAAAAAAAAAAAAAAAAAAAAAAAAAAAAAAAAAAAAAAAAAAAAAAAAAAAAAAAAAAAAAAAAAAAAAAAAAAAAAAAAAAAAAAAAAAAAAAAAAAAAAAAAAAAAAAAAAAAAAAAAAAAAAAAAAAAAAAAAAAAAAAAAAAAAAAAAAAAAAAAAAAAAAAAAAAAAAAAAAAAAAAAAAAAAAAAAAAAAAAAAAAAAAAAAAAAAAAAAAAAAAAAAAAAAAPZYQF3i2zGCvqVKmUngz8h1FzfdAKxFwY/QLGlMOcpRN6uXCeXf/abf1Ordz8lDAjv0sRj4KF0W/YtwiX9WqeOrxjs=</c2pa:manifest></metadata><rect width="1200" height="410" rx="16" fill="#12171a"/><rect x="6" y="6" width="1188" height="398" rx="12" fill="none" stroke="#2b3a2e" stroke-width="2"/><text x="50" y="48" font-size="22" fill="#7ED957" text-anchor="start" font-family="'Courier New',Consolas,monospace" font-weight="bold">JUEGOS</text><rect x="50.0" y="70.0" width="200.0" height="200.0" fill="#26402a" rx="6" stroke="#7ED957" stroke-width="2"/><g transform="translate(58,78)"><rect x="0.0" y="0.0" width="184.0" height="184.0" fill="#05060f" rx="0" /><rect x="22.1" y="18.4" width="16.6" height="14.7" fill="#ff4d4d" rx="0" /><rect x="25.8" y="33.1" width="9.2" height="5.5" fill="#ff4d4d" rx="0" /><rect x="47.8" y="18.4" width="16.6" height="14.7" fill="#ff4d4d" rx="0" /><rect x="51.5" y="33.1" width="9.2" height="5.5" fill="#ff4d4d" rx="0" /><rect x="73.6" y="18.4" width="16.6" height="14.7" fill="#ff4d4d" rx="0" /><rect x="77.3" y="33.1" width="9.2" height="5.5" fill="#ff4d4d" rx="0" /><rect x="99.4" y="18.4" width="16.6" height="14.7" fill="#ff4d4d" rx="0" /><rect x="103.0" y="33.1" width="9.2" height="5.5" fill="#ff4d4d" rx="0" /><rect x="125.1" y="18.4" width="16.6" height="14.7" fill="#ff4d4d" rx="0" /><rect x="128.8" y="33.1" width="9.2" height="5.5" fill="#ff4d4d" rx="0" /><rect x="150.9" y="18.4" width="16.6" height="14.7" fill="#ff4d4d" rx="0" /><rect x="154.6" y="33.1" width="9.2" height="5.5" fill="#ff4d4d" rx="0" /><rect x="22.1" y="44.2" width="16.6" height="14.7" fill="#4da6ff" rx="0" /><rect x="25.8" y="58.9" width="9.2" height="5.5" fill="#4da6ff" rx="0" /><rect x="47.8" y="44.2" width="16.6" height="14.7" fill="#4da6ff" rx="0" /><rect x="51.5" y="58.9" width="9.2" height="5.5" fill="#4da6ff" rx="0" /><rect x="73.6" y="44.2" width="16.6" height="14.7" fill="#4da6ff" rx="0" /><rect x="77.3" y="58.9" width="9.2" height="5.5" fill="#4da6ff" rx="0" /><rect x="99.4" y="44.2" width="16.6" height="14.7" fill="#4da6ff" rx="0" /><rect x="103.0" y="58.9" width="9.2" height="5.5" fill="#4da6ff" rx="0" /><rect x="125.1" y="44.2" width="16.6" height="14.7" fill="#4da6ff" rx="0" /><rect x="128.8" y="58.9" width="9.2" height="5.5" fill="#4da6ff" rx="0" /><rect x="150.9" y="44.2" width="16.6" height="14.7" fill="#4da6ff" rx="0" /><rect x="154.6" y="58.9" width="9.2" height="5.5" fill="#4da6ff" rx="0" /><rect x="22.1" y="69.9" width="16.6" height="14.7" fill="#ffd24d" rx="0" /><rect x="25.8" y="84.6" width="9.2" height="5.5" fill="#ffd24d" rx="0" /><rect x="47.8" y="69.9" width="16.6" height="14.7" fill="#ffd24d" rx="0" /><rect x="51.5" y="84.6" width="9.2" height="5.5" fill="#ffd24d" rx="0" /><rect x="73.6" y="69.9" width="16.6" height="14.7" fill="#ffd24d" rx="0" /><rect x="77.3" y="84.6" width="9.2" height="5.5" fill="#ffd24d" rx="0" /><rect x="99.4" y="69.9" width="16.6" height="14.7" fill="#ffd24d" rx="0" /><rect x="103.0" y="84.6" width="9.2" height="5.5" fill="#ffd24d" rx="0" /><rect x="125.1" y="69.9" width="16.6" height="14.7" fill="#ffd24d" rx="0" /><rect x="128.8" y="84.6" width="9.2" height="5.5" fill="#ffd24d" rx="0" /><rect x="150.9" y="69.9" width="16.6" height="14.7" fill="#ffd24d" rx="0" /><rect x="154.6" y="84.6" width="9.2" height="5.5" fill="#ffd24d" rx="0" /><polygon points="92.0,139.84 103.03999999999999,169.28 80.96000000000001,169.28" fill="#e8e8e8"/><rect x="90.5" y="92.0" width="3.0" height="33.1" fill="#7ED957" rx="0" /></g><text x="150" y="305" font-size="22" fill="#d7ecd0" text-anchor="middle" font-family="'Courier New',Consolas,monospace" font-weight="bold">Galaga</text><rect x="275.0" y="70.0" width="200.0" height="200.0" fill="#26402a" rx="6" stroke="#7ED957" stroke-width="2"/><g transform="translate(283,78)"><rect x="0.0" y="0.0" width="184.0" height="184.0" fill="#05060f" rx="0" /><rect x="11.0" y="55.2" width="7.4" height="55.2" fill="#fff" rx="0" /><rect x="165.6" y="82.8" width="7.4" height="55.2" fill="#fff" rx="0" /><rect x="101.2" y="73.6" width="11.0" height="11.0" fill="#7ED957" rx="0" /><rect x="90.2" y="9.2" width="3.7" height="12.9" fill="#555" rx="0" /><rect x="90.2" y="31.3" width="3.7" height="12.9" fill="#555" rx="0" /><rect x="90.2" y="53.4" width="3.7" height="12.9" fill="#555" rx="0" /><rect x="90.2" y="75.4" width="3.7" height="12.9" fill="#555" rx="0" /><rect x="90.2" y="97.5" width="3.7" height="12.9" fill="#555" rx="0" /><rect x="90.2" y="119.6" width="3.7" height="12.9" fill="#555" rx="0" /><rect x="90.2" y="141.7" width="3.7" height="12.9" fill="#555" rx="0" /><rect x="90.2" y="163.8" width="3.7" height="12.9" fill="#555" rx="0" /></g><text x="375" y="305" font-size="22" fill="#d7ecd0" text-anchor="middle" font-family="'Courier New',Consolas,monospace" font-weight="bold">Pong</text><rect x="500.0" y="70.0" width="200.0" height="200.0" fill="#26402a" rx="6" stroke="#7ED957" stroke-width="2"/><g transform="translate(508,78)"><rect x="0.0" y="0.0" width="184.0" height="184.0" fill="#0f2a12" rx="0" /><polyline points="36.800000000000004,138.0 36.800000000000004,55.199999999999996 128.79999999999998,55.199999999999996 128.79999999999998,110.39999999999999 92.0,110.39999999999999" fill="none" stroke="#7ED957" stroke-width="16.6"/><rect x="82.8" y="101.2" width="12.9" height="18.4" fill="#c8ffb0" rx="0" /><rect x="156.4" y="138.0" width="11.0" height="14.7" fill="#ff4d4d" rx="0" /></g><text x="600" y="305" font-size="22" fill="#d7ecd0" text-anchor="middle" font-family="'Courier New',Consolas,monospace" font-weight="bold">Snake</text><rect x="725.0" y="70.0" width="200.0" height="200.0" fill="#26402a" rx="6" stroke="#7ED957" stroke-width="2"/><g transform="translate(733,78)"><rect x="0.0" y="0.0" width="184.0" height="184.0" fill="#2c7a2c" rx="0" /><polygon points="69.92,0 114.08,0 165.6,184 18.400000000000002,184" fill="#555"/><rect x="90.2" y="9.2" width="3.7" height="18.4" fill="#fff" rx="0" /><rect x="90.2" y="46.0" width="3.7" height="18.4" fill="#fff" rx="0" /><rect x="90.2" y="82.8" width="3.7" height="18.4" fill="#fff" rx="0" /><rect x="90.2" y="119.6" width="3.7" height="18.4" fill="#fff" rx="0" /><rect x="90.2" y="156.4" width="3.7" height="18.4" fill="#fff" rx="0" /><rect x="101.2" y="128.8" width="18.4" height="31.3" fill="#e53935" rx="0" /><rect x="73.6" y="46.0" width="14.7" height="23.9" fill="#4da6ff" rx="0" /><rect x="92.0" y="82.8" width="14.7" height="23.9" fill="#7ED957" rx="0" /></g><text x="825" y="305" font-size="22" fill="#d7ecd0" text-anchor="middle" font-family="'Courier New',Consolas,monospace" font-weight="bold">Rally</text><rect x="950.0" y="70.0" width="200.0" height="200.0" fill="#26402a" rx="6" stroke="#7ED957" stroke-width="2"/><g transform="translate(958,78)"><rect x="0.0" y="0.0" width="184.0" height="184.0" fill="#06203a" rx="0" /><line x1="30.7" y1="0.0" x2="30.7" y2="184.0" stroke="#1d4e7a" stroke-width="1"/><line x1="0.0" y1="30.7" x2="184.0" y2="30.7" stroke="#1d4e7a" stroke-width="1"/><line x1="61.3" y1="0.0" x2="61.3" y2="184.0" stroke="#1d4e7a" stroke-width="1"/><line x1="0.0" y1="61.3" x2="184.0" y2="61.3" stroke="#1d4e7a" stroke-width="1"/><line x1="92.0" y1="0.0" x2="92.0" y2="184.0" stroke="#1d4e7a" stroke-width="1"/><line x1="0.0" y1="92.0" x2="184.0" y2="92.0" stroke="#1d4e7a" stroke-width="1"/><line x1="122.7" y1="0.0" x2="122.7" y2="184.0" stroke="#1d4e7a" stroke-width="1"/><line x1="0.0" y1="122.7" x2="184.0" y2="122.7" stroke="#1d4e7a" stroke-width="1"/><line x1="153.3" y1="0.0" x2="153.3" y2="184.0" stroke="#1d4e7a" stroke-width="1"/><line x1="0.0" y1="153.3" x2="184.0" y2="153.3" stroke="#1d4e7a" stroke-width="1"/><rect x="33.7" y="33.7" width="86.0" height="24.7" fill="#8da2b5" rx="3" /><rect x="125.7" y="64.3" width="24.7" height="55.3" fill="#8da2b5" rx="3" /><circle cx="106.7" cy="46.0" r="7.4" fill="#ff4d4d"/><circle cx="46.0" cy="138.0" r="5.5" fill="#fff"/></g><text x="1050" y="305" font-size="22" fill="#d7ecd0" text-anchor="middle" font-family="'Courier New',Consolas,monospace" font-weight="bold">Batalla naval</text><text x="1050" y="328" font-size="16" fill="#8fa392" text-anchor="middle" font-family="'Courier New',Consolas,monospace" font-weight="bold">(entre pantallas)</text><text x="600" y="375" font-size="24" fill="#7ED957" text-anchor="middle" font-family="'Courier New',Consolas,monospace" font-weight="bold">Y muchos más en camino...</text></svg>