<svg xmlns="http://www.w3.org/2000/svg" width="1200" height="440" viewBox="0 0 1200 440" xmlns:c2pa="http://c2pa.org/manifest"><metadata><c2pa:manifest>AAAWgmp1bWIAAAAeanVtZGMycGEAEQAQgAAAqgA4m3EDYzJwYQAAABZcanVtYgAAAEdqdW1kYzJtYQARABCAAACqADibcQN1cm46YzJwYToxY2EyNGQ1MC1jOGE4LTQ3YzYtYmVlZi0zNmQ3YTM3NzdmZmIAAAADl2p1bWIAAAApanVtZGMyYXMAEQAQgAAAqgA4m3EDYzJwYS5hc3NlcnRpb25zAAAAALxqdW1iAAAARGp1bWRjYm9yABEAEIAAAKoAOJtxE2MycGEuaW5ncmVkaWVudC52MwAAAAAYYzJzaG1aPEcCltTEeWhSXrTy6O0AAABwY2JvcqNpZGM6Zm9ybWF0bWltYWdlL3N2Zyt4bWxqaW5zdGFuY2VJRHgseG1wOmlpZDoyNzczNjYxZi1iNzE4LTQwZGQtOTJlMi01N2M0ODA0YTg4YWNscmVsYXRpb25zaGlwaHBhcmVudE9mAAAB4mp1bWIAAABBanVtZGNib3IAEQAQgAAAqgA4m3ETYzJwYS5hY3Rpb25zLnYyAAAAABhjMnNo8Gvhh2OK3zlzc4xM6DwUKQAAAZljYm9yomdhY3Rpb25zgqJmYWN0aW9ua2MycGEub3BlbmVkanBhcmFtZXRlcnOha2luZ3JlZGllbnRzgaJjdXJseC1zZWxmI2p1bWJmPWMycGEuYXNzZXJ0aW9ucy9jMnBhLmluZ3JlZGllbnQudjNkaGFzaFggtI9MUwqWMxbYECAEkjfR+XMV7Q5o9QXRW5og96O9KN+kZmFjdGlvbngdY29tLmFudGhyb3BpYy5jbGF1ZGUucHJvdmlkZWRqcGFyYW1ldGVyc6F4H2NvbS5hbnRocm9waWMub3JpZ2luLWNvbmZpZGVuY2VndW5rbm93bmtkZXNjcmlwdGlvbnhmQ2xhdWRlIHByb3ZpZGVkIHRoaXMgZmlsZSBhdCB0aGUgcmVxdWVzdCBvZiBhIHVzZXIgYW5kIG1heSBoYXZlIGNyZWF0ZWQgb3IgbW9kaWZpZWQgdGhlIGZpbGUgY29udGVudHMubXNvZnR3YXJlQWdlbnShZG5hbWVmQ2xhdWRlcmFsbEFjdGlvbnNJbmNsdWRlZPUAAADIanVtYgAAAEBqdW1kY2JvcgARABCAAACqADibcRNjMnBhLmhhc2guZGF0YQAAAAAYYzJzaNTSR6mB6hGjJ5O62zNSzhYAAACAY2JvcqVjYWxnZnNoYTI1NmNwYWRNAAAAAAAAAAAAAAAAAGRoYXNoWCCiRC1VQvJO2G8O6T5iAfD/l1jDrhvwfON7meu9XHEXy2RuYW1lbmp1bWJmIG1hbmlmZXN0amV4Y2x1c2lvbnOBomVzdGFydBiYZmxlbmd0aBkeBAAAAj5qdW1iAAAAJ2p1bWRjMmNsABEAEIAAAKoAOJtxA2MycGEuY2xhaW0udjIAAAACD2Nib3KlY2FsZ2ZzaGEyNTZpc2lnbmF0dXJleE1zZWxmI2p1bWJmPS9jMnBhL3VybjpjMnBhOjFjYTI0ZDUwLWM4YTgtNDdjNi1iZWVmLTM2ZDdhMzc3N2ZmYi9jMnBhLnNpZ25hdHVyZWppbnN0YW5jZUlEeCx4bXA6aWlkOjZkNDE1NzNjLWIzMjQtNDg4Ny04MzkyLTViZTJiYjg4ODE3OHJjcmVhdGVkX2Fzc2VydGlvbnODomN1cmx4LXNlbGYjanVtYmY9YzJwYS5hc3NlcnRpb25zL2MycGEuaW5ncmVkaWVudC52M2RoYXNoWCC0j0xTCpYzFtgQIASSN9H5cxXtDmj1BdFbmiD3o70o36JjdXJseCpzZWxmI2p1bWJmPWMycGEuYXNzZXJ0aW9ucy9jMnBhLmFjdGlvbnMudjJkaGFzaFggxiLKdybec5AGtq46/h+K6Fhf3JOjzs2HStG2tN8InhqiY3VybHgpc2VsZiNqdW1iZj1jMnBhLmFzc2VydGlvbnMvYzJwYS5oYXNoLmRhdGFkaGFzaFggMkWuXNc7s+Q1ETobAIHBCGNdIkXaDH8PcBSitrDeSGx0Y2xhaW1fZ2VuZXJhdG9yX2luZm+jZG5hbWVvQW50aHJvcGljIEZpbGVzZ3ZlcnNpb25lMS4wLjBrc3BlY1ZlcnNpb25lMi40LjAAABA4anVtYgAAAChqdW1kYzJjcwARABCAAACqADibcQNjMnBhLnNpZ25hdHVyZQAAABAIY2JvctKEWQISogEmGCFZAgowggIGMIIBjaADAgECAhRA5aAK7sI50L64g/oGQgU9Z1UTADAKBggqhkjOPQQDAzBJMRcwFQYDVQQKEw5BbnRocm9waWMsIFBCQzEuMCwGA1UEAxMlQW50aHJvcGljIENvbnRlbnQgQ3JlZGVudGlhbHMgUm9vdCBDQTAeFw0yNjA4MDcxODQzNTZaFw0yODA4MDYxOTQzNTZaMEQxFzAVBgNVBAoTDkFudGhyb3BpYywgUEJDMSkwJwYDVQQDEyBBbnRocm9waWMgQ2xhdWRlIENvbnRlbnQgU2lnbmluZzBZMBMGByqGSM49AgEGCCqGSM49AwEHA0IABJh6CmvLUBgFFNU0vUKlOVtE6djd17L5SuwX0LemFisBM3dkd/3cyjxFA3Qo5S46fX0/ihY0VZ7mfb9KF703t5OjWDBWMA4GA1UdDwEB/wQEAwIHgDAVBgNVHSUEDjAMBgorBgEEAYPoXgIBMAwGA1UdEwEB/wQCMAAwHwYDVR0jBBgwFoAUzlHiBIFOZFsj+OPEz5o+nMHXXMIwCgYIKoZIzj0EAwMDZwAwZAIwMXMdFJ4BetLLVY7ORuE9noqbbAZOZn/aArXyTwFAZfKrPzxF2vPoJNf1+UCdg1XGAjBwX1zd9WGqYkqmL5SFqw1QySjr1zJfpJM9+1rdDwSPLMOPOjKuiXjoU/pUUeG9RwmhY3BhZFkNngAAAAAAAAAAAAAAAAAAAAAAAAAAAAAAAAAAAAAAAAAAAAAAAAAAAAAAAAAAAAAAAAAAAAAAAAAAAAAAAAAAAAAAAAAAAAAAAAAAAAAAAAAAAAAAAAAAAAAAAAAAAAAAAAAAAAAAAAAAAAAAAAAAAAAAAAAAAAAAAAAAAAAAAAAAAAAAAAAAAAAAAAAAAAAAAAAAAAAAAAAAAAAAAAAAAAAAAAAAAAAAAAAAAAAAAAAAAAAAAAAAAAAAAAAAAAAAAAAAAAAAAAAAAAAAAAAAAAAAAAAAAAAAAAAAAAAAAAAAAAAAAAAAAAAAAAAAAAAAAAAAAAAAAAAAAAAAAAAAAAAAAAAAAAAAAAAAAAAAAAAAAAAAAAAAAAAAAAAAAAAAAAAAAAAAAAAAAAAAAAAAAAAAAAAAAAAAAAAAAAAAAAAAAAAAAAAAAAAAAAAAAAAAAAAAAAAAAAAAAAAAAAAAAAAAAAAAAAAAAAAAAAAAAAAAAAAAAAAAAAAAAAAAAAAAAAAAAAAAAAAAAAAAAAAAAAAAAAAAAAAAAAAAAAAAAAAAAAAAAAAAAAAAAAAAAAAAAAAAAAAAAAAAAAAAAAAAAAAAAAAAAAAAAAAAAAAAAAAAAAAAAAAAAAAAAAAAAAAAAAAAAAAAAAAAAAAAAAAAAAAAAAAAAAAAAAAAAAAAAAAAAAAAAAAAAAAAAAAAAAAAAAAAAAAAAAAAAAAAAAAAAAAAAAAAAAAAAAAAAAAAAAAAAAAAAAAAAAAAAAAAAAAAAAAAAAAAAAAAAAAAAAAAAAAAAAAAAAAAAAAAAAAAAAAAAAAAAAAAAAAAAAAAAAAAAAAAAAAAAAAAAAAAAAAAAAAAAAAAAAAAAAAAAAAAAAAAAAAAAAAAAAAAAAAAAAAAAAAAAAAAAAAAAAAAAAAAAAAAAAAAAAAAAAAAAAAAAAAAAAAAAAAAAAAAAAAAAAAAAAAAAAAAAAAAAAAAAAAAAAAAAAAAAAAAAAAAAAAAAAAAAAAAAAAAAAAAAAAAAAAAAAAAAAAAAAAAAAAAAAAAAAAAAAAAAAAAAAAAAAAAAAAAAAAAAAAAAAAAAAAAAAAAAAAAAAAAAAAAAAAAAAAAAAAAAAAAAAAAAAAAAAAAAAAAAAAAAAAAAAAAAAAAAAAAAAAAAAAAAAAAAAAAAAAAAAAAAAAAAAAAAAAAAAAAAAAAAAAAAAAAAAAAAAAAAAAAAAAAAAAAAAAAAAAAAAAAAAAAAAAAAAAAAAAAAAAAAAAAAAAAAAAAAAAAAAAAAAAAAAAAAAAAAAAAAAAAAAAAAAAAAAAAAAAAAAAAAAAAAAAAAAAAAAAAAAAAAAAAAAAAAAAAAAAAAAAAAAAAAAAAAAAAAAAAAAAAAAAAAAAAAAAAAAAAAAAAAAAAAAAAAAAAAAAAAAAAAAAAAAAAAAAAAAAAAAAAAAAAAAAAAAAAAAAAAAAAAAAAAAAAAAAAAAAAAAAAAAAAAAAAAAAAAAAAAAAAAAAAAAAAAAAAAAAAAAAAAAAAAAAAAAAAAAAAAAAAAAAAAAAAAAAAAAAAAAAAAAAAAAAAAAAAAAAAAAAAAAAAAAAAAAAAAAAAAAAAAAAAAAAAAAAAAAAAAAAAAAAAAAAAAAAAAAAAAAAAAAAAAAAAAAAAAAAAAAAAAAAAAAAAAAAAAAAAAAAAAAAAAAAAAAAAAAAAAAAAAAAAAAAAAAAAAAAAAAAAAAAAAAAAAAAAAAAAAAAAAAAAAAAAAAAAAAAAAAAAAAAAAAAAAAAAAAAAAAAAAAAAAAAAAAAAAAAAAAAAAAAAAAAAAAAAAAAAAAAAAAAAAAAAAAAAAAAAAAAAAAAAAAAAAAAAAAAAAAAAAAAAAAAAAAAAAAAAAAAAAAAAAAAAAAAAAAAAAAAAAAAAAAAAAAAAAAAAAAAAAAAAAAAAAAAAAAAAAAAAAAAAAAAAAAAAAAAAAAAAAAAAAAAAAAAAAAAAAAAAAAAAAAAAAAAAAAAAAAAAAAAAAAAAAAAAAAAAAAAAAAAAAAAAAAAAAAAAAAAAAAAAAAAAAAAAAAAAAAAAAAAAAAAAAAAAAAAAAAAAAAAAAAAAAAAAAAAAAAAAAAAAAAAAAAAAAAAAAAAAAAAAAAAAAAAAAAAAAAAAAAAAAAAAAAAAAAAAAAAAAAAAAAAAAAAAAAAAAAAAAAAAAAAAAAAAAAAAAAAAAAAAAAAAAAAAAAAAAAAAAAAAAAAAAAAAAAAAAAAAAAAAAAAAAAAAAAAAAAAAAAAAAAAAAAAAAAAAAAAAAAAAAAAAAAAAAAAAAAAAAAAAAAAAAAAAAAAAAAAAAAAAAAAAAAAAAAAAAAAAAAAAAAAAAAAAAAAAAAAAAAAAAAAAAAAAAAAAAAAAAAAAAAAAAAAAAAAAAAAAAAAAAAAAAAAAAAAAAAAAAAAAAAAAAAAAAAAAAAAAAAAAAAAAAAAAAAAAAAAAAAAAAAAAAAAAAAAAAAAAAAAAAAAAAAAAAAAAAAAAAAAAAAAAAAAAAAAAAAAAAAAAAAAAAAAAAAAAAAAAAAAAAAAAAAAAAAAAAAAAAAAAAAAAAAAAAAAAAAAAAAAAAAAAAAAAAAAAAAAAAAAAAAAAAAAAAAAAAAAAAAAAAAAAAAAAAAAAAAAAAAAAAAAAAAAAAAAAAAAAAAAAAAAAAAAAAAAAAAAAAAAAAAAAAAAAAAAAAAAAAAAAAAAAAAAAAAAAAAAAAAAAAAAAAAAAAAAAAAAAAAAAAAAAAAAAAAAAAAAAAAAAAAAAAAAAAAAAAAAAAAAAAAAAAAAAAAAAAAAAAAAAAAAAAAAAAAAAAAAAAAAAAAAAAAAAAAAAAAAAAAAAAAAAAAAAAAAAAAAAAAAAAAAAAAAAAAAAAAAAAAAAAAAAAAAAAAAAAAAAAAAAAAAAAAAAAAAAAAAAAAAAAAAAAAAAAAAAAAAAAAAAAAAAAAAAAAAAAAAAAAAAAAAAAAAAAAAAAAAAAAAAAAAAAAAAAAAAAAAAAAAAAAAAAAAAAAAAAAAAAAAAAAAAAAAAAAAAAAAAAAAAAAAAAAAAAAAAAAAAAAAAAAAAAAAAAAAAAAAAAAAAAAAAAAAAAAAAAAAAAAAAAAAAAAAAAAAAAAAAAAAAAAAAAAAAAAAAAAAAAAAAAAAAAAAAAAAAAAAAAAAAAAAAAAAAAAAAAAAAAAAAAAAAAAAAAAAAAAAAAAAAAAAAAAAAAAAAAAAAAAAAAAAAAAAAAAAAAAAAAAAAAAAAAAAAAAAAAAAAAAAAAAAAAAAAAAAAAAAAAAAAAAAAAAAAAAAAAAAAAAAAAAAAAAAAAAAAAAAAAAAAAAAAAAAAAAAAAAAAAAAAAAAAAAAAAAAAAAAAAAAAAAAAAAAAAAAAAAAAAAAAAAAAAAAAAAAAAAAAAAAAAAAAAAAAAAAAAAAAAAAAAAAAAAAAAAAAAAAAAAAAAAAAAAAAAAAAAAAAAAAAAAAAAAAAAAAAAAAAAAAAAAAAAAAAAAAAAAAAAAAAAAAAAAAAAAAAAAAAAAAAAAAAAAAAAAAAAAAAAAAAAAAAAAAAAAAAAAAAAAAAAAAAAAAAAAAAAAAAAAAAAAAAAAAAAAAAAAAAAAAAAAAAAAAAAAAAAAAAAAAAAAAAAAAAAAAAAAAAAAAAAAAAAAAAAAAAAAAAAAAAAAAAAAAAAAAAAAAAAAAAAAAAAAAAAAAAAAAAAAAAAAAAAAAAAAAAAAAAAAAAAAAAAAAAAAAAAAAAAAAAAAAAAAAAAAAAAAAAAAAAAAAAAAAAAAAAAAAAAAAAAAAAAAAAAAAAAAAAAAAAAAAAAAAAAAAAAAAAAAAAAAAAAAAAAAAAAAAAAAAAAAAAAAAAAAAAAAAAAAAAAAAAAAAAAAAAAAAAAAAAAAAAAAAAAAAAAAAAAAAAAAAAAAAAAAAAAAAAAAAAAAAAAAAAAAAAAAAAAAAAAAAAAAAAAAAAAAAAAAAAAAAAAAAAAAAAAAAAAAAAAAAAAAAAAAAAAAAAAAAAAAAAAAAAAAAAAAAAAAAAAAAAAAAAAAAAAAAAAAAAAAAAAAAAAAAAAAAAAAAAAAAAAAAAAAAAAAAAAAAAAAAAAAAAAAAAAAAAAAAAAAAAAAAAAAAAAAAAAAAAAAAAAAAAAAAAAAAAAAAAAAAAAAAAAAAAAAAAAAAAAAAAAAAAAAAAAAAAAAAAAAAAAAAAAAAAAAAAAAAAAAAAAAAAAAAAAAAAAAAAAAAAAAAAAAAAAAAAAAAAAAAAAAAAAAAAAAAAAAAAAAAAAAAAAAAAAAAAAAAAAAAAAAAAAAAAAAAAAAAAAAAAAAAAAAAAAAAAAAAAAAAAAAAAAAAAAAAAAAAAAAAAAAAAAAAAAAAAAAAAAAAAAAAAAAAAAAAAAAAAAAAAAAAAAAAAAAAAAAAAAAAAAAAAAAAAAAAAAAAAAAAAAAAAAAAAAAAAAAAAAAAAAAAAAAAAAAAAAAAAAAAAAAAAAAAAAAAAAAAAAAAAAAAAAAAAAAAAAAAAAAAAAAAAAAAAAAAAAAAAAAAAAAAAAAAAAAAAAAAAAAAAAAAAAAAAAAAAAAAAAAAAAAAAAAAAAAAAAAAAAAAAAAAAAAAAAAAAAAAAAAAAAAAAAAAAAAAAAAAAAAAAAAAAAAAAAAAAAAAAAAAAAAAAAPZYQE/CNxxbUou5+HyidLXvkO5KS8ufEzaWSCGNBzkMPuKGD8Qfd6G3preK6DLTRcRHL7o6k0pvXrPTgqUCVIEWfoM=</c2pa:manifest></metadata><rect width="1200" height="440" rx="16" fill="#12171a"/><rect x="6" y="6" width="1188" height="428" rx="12" fill="none" stroke="#2b3a2e" stroke-width="2"/><rect x="40.0" y="40.0" width="340.0" height="330.0" fill="#1a221d" rx="12" stroke="#2b3a2e" stroke-width="2"/><text x="210" y="82" font-size="24" fill="#7ED957" text-anchor="middle" font-family="'Courier New',Consolas,monospace" font-weight="bold">JUEGA SOLO</text><text x="210" y="108" font-size="18" fill="#8fa392" text-anchor="middle" font-family="'Courier New',Consolas,monospace" font-weight="bold">Una persona por pantalla</text><rect x="135.0" y="135.0" width="150.0" height="110.0" fill="#26402a" rx="6" stroke="#7ED957" stroke-width="2"/><g transform="translate(143,143)"><rect x="0.0" y="0.0" width="134.0" height="94.0" fill="#05060f" rx="0" /><rect x="16.1" y="9.4" width="12.1" height="7.5" fill="#ff4d4d" rx="0" /><rect x="18.8" y="16.9" width="6.7" height="2.8" fill="#ff4d4d" rx="0" /><rect x="34.8" y="9.4" width="12.1" height="7.5" fill="#ff4d4d" rx="0" /><rect x="37.5" y="16.9" width="6.7" height="2.8" fill="#ff4d4d" rx="0" /><rect x="53.6" y="9.4" width="12.1" height="7.5" fill="#ff4d4d" rx="0" /><rect x="56.3" y="16.9" width="6.7" height="2.8" fill="#ff4d4d" rx="0" /><rect x="72.4" y="9.4" width="12.1" height="7.5" fill="#ff4d4d" rx="0" /><rect x="75.0" y="16.9" width="6.7" height="2.8" fill="#ff4d4d" rx="0" /><rect x="91.1" y="9.4" width="12.1" height="7.5" fill="#ff4d4d" rx="0" /><rect x="93.8" y="16.9" width="6.7" height="2.8" fill="#ff4d4d" rx="0" /><rect x="109.9" y="9.4" width="12.1" height="7.5" fill="#ff4d4d" rx="0" /><rect x="112.6" y="16.9" width="6.7" height="2.8" fill="#ff4d4d" rx="0" /><rect x="16.1" y="22.6" width="12.1" height="7.5" fill="#4da6ff" rx="0" /><rect x="18.8" y="30.1" width="6.7" height="2.8" fill="#4da6ff" rx="0" /><rect x="34.8" y="22.6" width="12.1" height="7.5" fill="#4da6ff" rx="0" /><rect x="37.5" y="30.1" width="6.7" height="2.8" fill="#4da6ff" rx="0" /><rect x="53.6" y="22.6" width="12.1" height="7.5" fill="#4da6ff" rx="0" /><rect x="56.3" y="30.1" width="6.7" height="2.8" fill="#4da6ff" rx="0" /><rect x="72.4" y="22.6" width="12.1" height="7.5" fill="#4da6ff" rx="0" /><rect x="75.0" y="30.1" width="6.7" height="2.8" fill="#4da6ff" rx="0" /><rect x="91.1" y="22.6" width="12.1" height="7.5" fill="#4da6ff" rx="0" /><rect x="93.8" y="30.1" width="6.7" height="2.8" fill="#4da6ff" rx="0" /><rect x="109.9" y="22.6" width="12.1" height="7.5" fill="#4da6ff" rx="0" /><rect x="112.6" y="30.1" width="6.7" height="2.8" fill="#4da6ff" rx="0" /><rect x="16.1" y="35.7" width="12.1" height="7.5" fill="#ffd24d" rx="0" /><rect x="18.8" y="43.2" width="6.7" height="2.8" fill="#ffd24d" rx="0" /><rect x="34.8" y="35.7" width="12.1" height="7.5" fill="#ffd24d" rx="0" /><rect x="37.5" y="43.2" width="6.7" height="2.8" fill="#ffd24d" rx="0" /><rect x="53.6" y="35.7" width="12.1" height="7.5" fill="#ffd24d" rx="0" /><rect x="56.3" y="43.2" width="6.7" height="2.8" fill="#ffd24d" rx="0" /><rect x="72.4" y="35.7" width="12.1" height="7.5" fill="#ffd24d" rx="0" /><rect x="75.0" y="43.2" width="6.7" height="2.8" fill="#ffd24d" rx="0" /><rect x="91.1" y="35.7" width="12.1" height="7.5" fill="#ffd24d" rx="0" /><rect x="93.8" y="43.2" width="6.7" height="2.8" fill="#ffd24d" rx="0" /><rect x="109.9" y="35.7" width="12.1" height="7.5" fill="#ffd24d" rx="0" /><rect x="112.6" y="43.2" width="6.7" height="2.8" fill="#ffd24d" rx="0" /><polygon points="67.0,71.44 75.03999999999999,86.48 58.96,86.48" fill="#e8e8e8"/><rect x="65.5" y="47.0" width="3.0" height="16.9" fill="#7ED957" rx="0" /></g><circle cx="210" cy="285" r="11.200000000000001" fill="#8fa392"/><path d="M189.2,329.8 Q189.2,302.6 210,302.6 Q230.8,302.6 230.8,329.8 Z" fill="#8fa392"/><rect x="420.0" y="40.0" width="340.0" height="330.0" fill="#1a221d" rx="12" stroke="#2b3a2e" stroke-width="2"/><text x="590" y="82" font-size="24" fill="#7ED957" text-anchor="middle" font-family="'Courier New',Consolas,monospace" font-weight="bold">DOS EN UNA PANTALLA</text><text x="590" y="108" font-size="18" fill="#8fa392" text-anchor="middle" font-family="'Courier New',Consolas,monospace" font-weight="bold">Comparte con un amigo</text><rect x="515.0" y="135.0" width="150.0" height="110.0" fill="#26402a" rx="6" stroke="#7ED957" stroke-width="2"/><g transform="translate(523,143)"><rect x="0.0" y="0.0" width="134.0" height="94.0" fill="#05060f" rx="0" /><rect x="8.0" y="28.2" width="5.4" height="28.2" fill="#fff" rx="0" /><rect x="120.6" y="42.3" width="5.4" height="28.2" fill="#fff" rx="0" /><rect x="73.7" y="37.6" width="8.0" height="8.0" fill="#7ED957" rx="0" /><rect x="65.7" y="4.7" width="2.7" height="6.6" fill="#555" rx="0" /><rect x="65.7" y="16.0" width="2.7" height="6.6" fill="#555" rx="0" /><rect x="65.7" y="27.3" width="2.7" height="6.6" fill="#555" rx="0" /><rect x="65.7" y="38.5" width="2.7" height="6.6" fill="#555" rx="0" /><rect x="65.7" y="49.8" width="2.7" height="6.6" fill="#555" rx="0" /><rect x="65.7" y="61.1" width="2.7" height="6.6" fill="#555" rx="0" /><rect x="65.7" y="72.4" width="2.7" height="6.6" fill="#555" rx="0" /><rect x="65.7" y="83.7" width="2.7" height="6.6" fill="#555" rx="0" /></g><circle cx="480" cy="285" r="11.200000000000001" fill="#8fa392"/><path d="M459.2,329.8 Q459.2,302.6 480,302.6 Q500.8,302.6 500.8,329.8 Z" fill="#8fa392"/><circle cx="700" cy="285" r="11.200000000000001" fill="#8fa392"/><path d="M679.2,329.8 Q679.2,302.6 700,302.6 Q720.8,302.6 720.8,329.8 Z" fill="#8fa392"/><rect x="800.0" y="40.0" width="340.0" height="330.0" fill="#1a221d" rx="12" stroke="#2b3a2e" stroke-width="2"/><text x="970" y="82" font-size="24" fill="#7ED957" text-anchor="middle" font-family="'Courier New',Consolas,monospace" font-weight="bold">ENTRE PANTALLAS</text><text x="970" y="108" font-size="18" fill="#8fa392" text-anchor="middle" font-family="'Courier New',Consolas,monospace" font-weight="bold">Conecta los 4 lados</text><polygon points="970,150 1030.62,185.0 970,220 909.38,185.0" fill="#2b3a2e" stroke="#7ED957" stroke-width="2"/><polygon points="970,165.75 1003.341,185.0 970,204.25 936.659,185.0" fill="#0e1410"/><circle cx="970" cy="185.0" r="4.9" fill="none" stroke="#7ED957" stroke-width="2"/><polygon points="909.38,185.0 970,220 970,290 909.38,255.0" fill="#1c261f" stroke="#7ED957" stroke-width="2"/><polygon points="970,220 1030.62,185.0 1030.62,255.0 970,290" fill="#1c261f" stroke="#7ED957" stroke-width="2"/><g transform="matrix(0.6062,0.35,0,0.7,909.38,185.0)"><rect x="6.0" y="6.0" width="88.0" height="64.0" fill="#26402a" rx="4" /><g transform="translate(12,12)"><rect x="0.0" y="0.0" width="76.0" height="52.0" fill="#05060f" rx="0" /><rect x="9.1" y="5.2" width="6.8" height="4.2" fill="#ff4d4d" rx="0" /><rect x="10.6" y="9.4" width="3.8" height="1.6" fill="#ff4d4d" rx="0" /><rect x="19.8" y="5.2" width="6.8" height="4.2" fill="#ff4d4d" rx="0" /><rect x="21.3" y="9.4" width="3.8" height="1.6" fill="#ff4d4d" rx="0" /><rect x="30.4" y="5.2" width="6.8" height="4.2" fill="#ff4d4d" rx="0" /><rect x="31.9" y="9.4" width="3.8" height="1.6" fill="#ff4d4d" rx="0" /><rect x="41.0" y="5.2" width="6.8" height="4.2" fill="#ff4d4d" rx="0" /><rect x="42.6" y="9.4" width="3.8" height="1.6" fill="#ff4d4d" rx="0" /><rect x="51.7" y="5.2" width="6.8" height="4.2" fill="#ff4d4d" rx="0" /><rect x="53.2" y="9.4" width="3.8" height="1.6" fill="#ff4d4d" rx="0" /><rect x="62.3" y="5.2" width="6.8" height="4.2" fill="#ff4d4d" rx="0" /><rect x="63.8" y="9.4" width="3.8" height="1.6" fill="#ff4d4d" rx="0" /><rect x="9.1" y="12.5" width="6.8" height="4.2" fill="#4da6ff" rx="0" /><rect x="10.6" y="16.6" width="3.8" height="1.6" fill="#4da6ff" rx="0" /><rect x="19.8" y="12.5" width="6.8" height="4.2" fill="#4da6ff" rx="0" /><rect x="21.3" y="16.6" width="3.8" height="1.6" fill="#4da6ff" rx="0" /><rect x="30.4" y="12.5" width="6.8" height="4.2" fill="#4da6ff" rx="0" /><rect x="31.9" y="16.6" width="3.8" height="1.6" fill="#4da6ff" rx="0" /><rect x="41.0" y="12.5" width="6.8" height="4.2" fill="#4da6ff" rx="0" /><rect x="42.6" y="16.6" width="3.8" height="1.6" fill="#4da6ff" rx="0" /><rect x="51.7" y="12.5" width="6.8" height="4.2" fill="#4da6ff" rx="0" /><rect x="53.2" y="16.6" width="3.8" height="1.6" fill="#4da6ff" rx="0" /><rect x="62.3" y="12.5" width="6.8" height="4.2" fill="#4da6ff" rx="0" /><rect x="63.8" y="16.6" width="3.8" height="1.6" fill="#4da6ff" rx="0" /><rect x="9.1" y="19.8" width="6.8" height="4.2" fill="#ffd24d" rx="0" /><rect x="10.6" y="23.9" width="3.8" height="1.6" fill="#ffd24d" rx="0" /><rect x="19.8" y="19.8" width="6.8" height="4.2" fill="#ffd24d" rx="0" /><rect x="21.3" y="23.9" width="3.8" height="1.6" fill="#ffd24d" rx="0" /><rect x="30.4" y="19.8" width="6.8" height="4.2" fill="#ffd24d" rx="0" /><rect x="31.9" y="23.9" width="3.8" height="1.6" fill="#ffd24d" rx="0" /><rect x="41.0" y="19.8" width="6.8" height="4.2" fill="#ffd24d" rx="0" /><rect x="42.6" y="23.9" width="3.8" height="1.6" fill="#ffd24d" rx="0" /><rect x="51.7" y="19.8" width="6.8" height="4.2" fill="#ffd24d" rx="0" /><rect x="53.2" y="23.9" width="3.8" height="1.6" fill="#ffd24d" rx="0" /><rect x="62.3" y="19.8" width="6.8" height="4.2" fill="#ffd24d" rx="0" /><rect x="63.8" y="23.9" width="3.8" height="1.6" fill="#ffd24d" rx="0" /><polygon points="38.0,39.52 42.56,47.84 33.44,47.84" fill="#e8e8e8"/><rect x="36.5" y="26.0" width="3.0" height="9.4" fill="#7ED957" rx="0" /></g><line x1="12.0" y1="80.0" x2="48.0" y2="80.0" stroke="#7ED957" stroke-width="2"/><line x1="12.0" y1="86.0" x2="48.0" y2="86.0" stroke="#7ED957" stroke-width="2"/><line x1="12.0" y1="92.0" x2="48.0" y2="92.0" stroke="#7ED957" stroke-width="2"/><rect x="60.0" y="78.0" width="10.0" height="14.0" fill="#c9803a" rx="0" /><rect x="74.0" y="78.0" width="10.0" height="14.0" fill="#c9803a" rx="0" /></g><g transform="matrix(0.6062,-0.35,0,0.7,970,220)"><rect x="6.0" y="6.0" width="88.0" height="64.0" fill="#26402a" rx="4" /><g transform="translate(12,12)"><rect x="0.0" y="0.0" width="76.0" height="52.0" fill="#2c7a2c" rx="0" /><polygon points="28.88,0 47.12,0 68.4,52 7.6000000000000005,52" fill="#555"/><rect x="37.2" y="2.6" width="1.5" height="5.2" fill="#fff" rx="0" /><rect x="37.2" y="13.0" width="1.5" height="5.2" fill="#fff" rx="0" /><rect x="37.2" y="23.4" width="1.5" height="5.2" fill="#fff" rx="0" /><rect x="37.2" y="33.8" width="1.5" height="5.2" fill="#fff" rx="0" /><rect x="37.2" y="44.2" width="1.5" height="5.2" fill="#fff" rx="0" /><rect x="41.8" y="36.4" width="7.6" height="8.8" fill="#e53935" rx="0" /><rect x="30.4" y="13.0" width="6.1" height="6.8" fill="#4da6ff" rx="0" /><rect x="38.0" y="23.4" width="6.1" height="6.8" fill="#7ED957" rx="0" /></g><line x1="12.0" y1="80.0" x2="48.0" y2="80.0" stroke="#7ED957" stroke-width="2"/><line x1="12.0" y1="86.0" x2="48.0" y2="86.0" stroke="#7ED957" stroke-width="2"/><line x1="12.0" y1="92.0" x2="48.0" y2="92.0" stroke="#7ED957" stroke-width="2"/><rect x="60.0" y="78.0" width="10.0" height="14.0" fill="#c9803a" rx="0" /><rect x="74.0" y="78.0" width="10.0" height="14.0" fill="#c9803a" rx="0" /></g><circle cx="850" cy="170" r="8.4" fill="#8fa392"/><path d="M834.4,203.6 Q834.4,183.2 850,183.2 Q865.6,183.2 865.6,203.6 Z" fill="#8fa392"/><circle cx="1090" cy="170" r="8.4" fill="#8fa392"/><path d="M1074.4,203.6 Q1074.4,183.2 1090,183.2 Q1105.6,183.2 1105.6,203.6 Z" fill="#8fa392"/><circle cx="850" cy="285" r="8.4" fill="#8fa392"/><path d="M834.4,318.6 Q834.4,298.2 850,298.2 Q865.6,298.2 865.6,318.6 Z" fill="#8fa392"/><circle cx="1090" cy="285" r="8.4" fill="#8fa392"/><path d="M1074.4,318.6 Q1074.4,298.2 1090,298.2 Q1105.6,298.2 1105.6,318.6 Z" fill="#8fa392"/><text x="600" y="415" font-size="22" fill="#7ED957" text-anchor="middle" font-family="'Courier New',Consolas,monospace" font-weight="bold">4 LADOS · 4 JUGADORES · DIFERENTES JUEGOS · UNA SOLA CONSOLA</text></svg>